<svg width="1400" height="1050" viewBox="0 0 1400 1050" xmlns="http://www.w3.org/2000/svg" role="img" aria-labelledby="title desc">
  <title id="title">Cybersecurity portfolio evidence dashboard</title>
  <desc id="desc">A polished security operations dashboard illustration showing investigation panels, signal status, validation rows, and a shield mark.</desc>
  <defs>
    <linearGradient id="bg" x1="0" y1="0" x2="1" y2="1">
      <stop offset="0" stop-color="#f7f8f5"/>
      <stop offset="0.58" stop-color="#e8f2ee"/>
      <stop offset="1" stop-color="#123d3f"/>
    </linearGradient>
    <linearGradient id="screen" x1="0" y1="0" x2="1" y2="1">
      <stop offset="0" stop-color="#123d3f"/>
      <stop offset="1" stop-color="#0d7c7f"/>
    </linearGradient>
    <linearGradient id="panel" x1="0" y1="0" x2="1" y2="1">
      <stop offset="0" stop-color="#ffffff" stop-opacity=".96"/>
      <stop offset="1" stop-color="#f7f8f5" stop-opacity=".86"/>
    </linearGradient>
    <pattern id="grid" width="64" height="64" patternUnits="userSpaceOnUse">
      <path d="M64 0H0v64" fill="none" stroke="#123d3f" stroke-opacity=".08" stroke-width="2"/>
    </pattern>
    <filter id="shadow" x="-20%" y="-20%" width="140%" height="140%">
      <feDropShadow dx="0" dy="28" stdDeviation="30" flood-color="#182423" flood-opacity=".18"/>
    </filter>
  </defs>

  <rect width="1400" height="1050" fill="url(#bg)"/>
  <rect width="1400" height="1050" fill="url(#grid)"/>
  <path d="M0 782c170-88 314-114 484-77 178 39 278 14 438-60 166-77 306-88 478-32v437H0z" fill="#123d3f" opacity=".92"/>

  <g filter="url(#shadow)">
    <rect x="110" y="128" width="1180" height="752" rx="24" fill="url(#panel)" stroke="#ffffff" stroke-width="5"/>
    <rect x="158" y="184" width="1084" height="86" rx="18" fill="url(#screen)"/>
    <rect x="158" y="310" width="430" height="294" rx="18" fill="#123d3f"/>
    <rect x="626" y="310" width="286" height="294" rx="18" fill="#ffffff" opacity=".94"/>
    <rect x="946" y="310" width="296" height="294" rx="18" fill="#ffffff" opacity=".94"/>
    <rect x="158" y="642" width="1084" height="158" rx="18" fill="#ffffff" opacity=".9"/>
  </g>

  <g transform="translate(234 365)">
    <path d="M116 0l104 38v90c0 84-62 128-104 145C74 256 12 212 12 128V38z" fill="#e8f2ee"/>
    <path d="M116 41l66 24v62c0 50-35 82-66 98-31-16-66-48-66-98V65z" fill="#2f6f63"/>
    <path d="M83 126l24 23 47-53" fill="none" stroke="#ffffff" stroke-width="17" stroke-linecap="round" stroke-linejoin="round"/>
  </g>

  <g fill="#ffffff">
    <rect x="214" y="212" width="156" height="18" rx="9" opacity=".88"/>
    <rect x="410" y="212" width="260" height="18" rx="9" opacity=".5"/>
    <rect x="704" y="212" width="178" height="18" rx="9" opacity=".5"/>
    <rect x="1058" y="210" width="92" height="22" rx="11" opacity=".82"/>
  </g>

  <g stroke="#2f6f63" stroke-width="8" stroke-linecap="round">
    <path d="M684 376h120"/>
    <path d="M684 430h162"/>
    <path d="M684 484h104"/>
    <path d="M684 538h176"/>
    <path d="M1012 378h144"/>
    <path d="M1012 484h168"/>
    <path d="M220 706h232"/>
    <path d="M542 706h214"/>
    <path d="M846 706h292"/>
  </g>

  <g stroke="#d95745" stroke-width="8" stroke-linecap="round">
    <path d="M1012 430h102"/>
    <path d="M1012 538h130"/>
    <path d="M220 750h188"/>
    <path d="M542 750h152"/>
    <path d="M846 750h198"/>
  </g>

  <g fill="#123d3f">
    <rect x="684" y="352" width="58" height="12" rx="6" opacity=".26"/>
    <rect x="1012" y="352" width="68" height="12" rx="6" opacity=".26"/>
    <rect x="220" y="682" width="72" height="12" rx="6" opacity=".26"/>
    <rect x="542" y="682" width="72" height="12" rx="6" opacity=".26"/>
    <rect x="846" y="682" width="72" height="12" rx="6" opacity=".26"/>
  </g>

  <g fill="#d99f2f">
    <rect x="1078" y="212" width="52" height="18" rx="9"/>
    <rect x="704" y="534" width="88" height="16" rx="8"/>
    <rect x="1032" y="534" width="76" height="16" rx="8"/>
    <rect x="1122" y="746" width="62" height="16" rx="8"/>
  </g>

  <g fill="none" stroke-linecap="round" stroke-linejoin="round">
    <path d="M228 558c58-72 112-34 164-86 46-46 82-84 144-74" stroke="#e8f2ee" stroke-width="10"/>
    <path d="M230 558c58-44 124-42 178-16 42 20 78 22 126-2" stroke="#d99f2f" stroke-width="10"/>
    <path d="M170 836c146-50 280-48 402 2 118 48 234 48 360 0 126-48 226-48 342 0" stroke="#d99f2f" stroke-width="16"/>
  </g>
</svg>
