<svg width="1400" height="1050" viewBox="0 0 1400 1050" xmlns="http://www.w3.org/2000/svg" role="img" aria-labelledby="title desc">
  <title id="title">Cybersecurity portfolio dashboard</title>
  <desc id="desc">A polished security-themed dashboard illustration with a shield, check mark, connection lines, and evidence panels.</desc>
  <defs>
    <linearGradient id="bg" x1="0" y1="0" x2="1" y2="1">
      <stop offset="0" stop-color="#f9fbf5"/>
      <stop offset="0.48" stop-color="#d9eee7"/>
      <stop offset="1" stop-color="#103c3f"/>
    </linearGradient>
    <linearGradient id="panel" x1="0" y1="0" x2="1" y2="1">
      <stop offset="0" stop-color="#ffffff" stop-opacity=".94"/>
      <stop offset="1" stop-color="#f6f8f4" stop-opacity=".76"/>
    </linearGradient>
    <pattern id="grid" width="70" height="70" patternUnits="userSpaceOnUse">
      <path d="M70 0H0v70" fill="none" stroke="#103c3f" stroke-opacity=".12" stroke-width="2"/>
    </pattern>
    <filter id="shadow" x="-20%" y="-20%" width="140%" height="140%">
      <feDropShadow dx="0" dy="26" stdDeviation="28" flood-color="#182423" flood-opacity=".18"/>
    </filter>
  </defs>
  <rect width="1400" height="1050" fill="url(#bg)"/>
  <rect width="1400" height="1050" fill="url(#grid)"/>
  <circle cx="1150" cy="150" r="285" fill="#f3b84d" opacity=".32"/>
  <circle cx="210" cy="870" r="260" fill="#e45b4f" opacity=".18"/>
  <path d="M0 790c210-130 390-60 590-180 240-144 370-352 810-272v712H0z" fill="#103c3f" opacity=".9"/>
  <g filter="url(#shadow)">
    <rect x="116" y="132" width="1168" height="720" rx="28" fill="url(#panel)" stroke="#ffffff" stroke-width="5"/>
    <rect x="168" y="190" width="442" height="240" rx="20" fill="#103c3f"/>
    <rect x="664" y="190" width="568" height="132" rx="20" fill="#ffffff" opacity=".9"/>
    <rect x="664" y="352" width="246" height="294" rx="20" fill="#ffffff" opacity=".9"/>
    <rect x="944" y="352" width="288" height="294" rx="20" fill="#ffffff" opacity=".9"/>
    <rect x="168" y="470" width="442" height="176" rx="20" fill="#ffffff" opacity=".9"/>
    <rect x="168" y="686" width="1064" height="96" rx="20" fill="#ffffff" opacity=".86"/>
  </g>
  <g transform="translate(268 235)">
    <path d="M120 0l110 40v92c0 90-68 136-110 152C78 268 10 222 10 132V40z" fill="#d9eee7"/>
    <path d="M120 42l70 26v64c0 54-38 86-70 102-32-16-70-48-70-102V68z" fill="#2f6f63"/>
    <path d="M86 132l24 24 48-52" fill="none" stroke="#ffffff" stroke-width="18" stroke-linecap="round" stroke-linejoin="round"/>
  </g>
  <g stroke="#2f6f63" stroke-width="8" stroke-linecap="round">
    <path d="M720 256h310M720 414h122M720 478h138M720 542h92M224 732h228M518 732h308M900 732h230"/>
  </g>
  <g stroke="#e45b4f" stroke-width="8" stroke-linecap="round">
    <path d="M720 286h428M994 424h168M994 490h116M994 556h178"/>
  </g>
  <g fill="#103c3f">
    <circle cx="720" cy="256" r="13"/><circle cx="1030" cy="256" r="13"/>
    <circle cx="720" cy="414" r="13"/><circle cx="842" cy="414" r="13"/>
    <circle cx="994" cy="424" r="13"/><circle cx="1162" cy="424" r="13"/>
    <circle cx="224" cy="732" r="13"/><circle cx="452" cy="732" r="13"/>
    <circle cx="518" cy="732" r="13"/><circle cx="826" cy="732" r="13"/>
  </g>
  <g fill="#f3b84d">
    <circle cx="1170" cy="258" r="24"/><circle cx="1114" cy="258" r="24" opacity=".78"/><circle cx="1058" cy="258" r="24" opacity=".58"/>
  </g>
  <path d="M116 854c122-54 234-52 366 2 118 48 226 52 342 4 162-68 292-70 458-8" fill="none" stroke="#f3b84d" stroke-width="18" stroke-linecap="round"/>
</svg>
